# xmcd
#
# Track frame offsets:
#	150
#	27451
#	42402
#	64720
#	82189
#	95781
#	110300
#	120779
#	137090
#	152135
#	173040
#	185793
#	202296
#	216554
#	229496
#	245580
#	259516
#	274823
#	290300
#	308241
#	326205
#
# Disc length: 4525 seconds
#
# Revision: 0
# Processed by: cddbd v1.5.2PL0 Copyright (c) Steve Scherf et al.
# Submitted via: EZCDAudioConverter 2.1.7.1
#
DISCID=4a11ab15
DTITLE=Terry Hall - The Best Of 1981-1997 2/2
DYEAR=1900
DGENRE=
TTITLE0=Fun Boy Three with Bananarama - Funrama 2
TTITLE1=Fun Boy Three - Best Of Luck Mate
TTITLE2=The Colourfield - Heart Of America
TTITLE3=Terry Hall - Ballad Of A Landlord
TTITLE4=Fun Boy Three with Bananarama - Alone
TTITLE5=Terry Hall - I Saw The Light
TTITLE6=The Colourfield - Can't Get Enough Of You Baby
TTITLE7=Fun Boy Three - Going Home
TTITLE8=Terry, Blair and Anouchka - Happy Families
TTITLE9=Vegas - Possessed
TTITLE10=Fun Boy Three - We're Having All The Fun
TTITLE11=The Colourfield - Castles In The Air
TTITLE12=Fun Boy Three - The Pressure Of Life (Takes The Weight Off The Body)
TTITLE13=Terry Hall - Music To Watch Girls By
TTITLE14=Fun Boy Three - Things We Do
TTITLE15=Fun Boy Three - Well Fancy That
TTITLE16=The Colourfield - Things Could Be Beautiful
TTITLE17=Fun Boy Three - I Don't Believe It
TTITLE18=Fun Boy Three - Summer Of '82
TTITLE19=The Colourfield - Cruel Circus
TTITLE20=Fun Boy Three - Way On Down
EXTD=
EXTT0=
EXTT1=
EXTT2=
EXTT3=
EXTT4=
EXTT5=
EXTT6=
EXTT7=
EXTT8=
EXTT9=
EXTT10=
EXTT11=
EXTT12=
EXTT13=
EXTT14=
EXTT15=
EXTT16=
EXTT17=
EXTT18=
EXTT19=
EXTT20=
PLAYORDER=
